HIERARCHY
ROOT Hips
{
	OFFSET 0.00000 0.00000 0.00000
	CHANNELS 6 Xposition Yposition Zposition Zrotation Yrotation Xrotation 
	JOINT LHipJoint
	{
		OFFSET 0 0 0
		CHANNELS 3 Zrotation Yrotation Xrotation
		JOINT LeftHip
		{
			OFFSET 1.85742 -1.74412 1.01653
			CHANNELS 3 Zrotation Yrotation Xrotation
			JOINT LeftKnee
			{
				OFFSET 2.54803 -7.00067 0.00000
				CHANNELS 3 Zrotation Yrotation Xrotation
				JOINT LeftAnkle
				{
					OFFSET 2.51202 -6.90173 0.00000
					CHANNELS 3 Zrotation Yrotation Xrotation
					JOINT LeftToe
					{
						OFFSET 0.17547 -0.48209 1.64281
						CHANNELS 3 Zrotation Yrotation Xrotation
						End Site
						{
							OFFSET 0.00000 -0.00000 0.86587
						}
					}
				}
			}
		}
	}
	JOINT RHipJoint
	{
		OFFSET 0 0 0
		CHANNELS 3 Zrotation Yrotation Xrotation
		JOINT RightHip
		{
			OFFSET -1.95533 -1.74413 1.01654
			CHANNELS 3 Zrotation Yrotation Xrotation
			JOINT RightKnee
			{
				OFFSET -2.49465 -6.85400 0.00000
				CHANNELS 3 Zrotation Yrotation Xrotation
				JOINT RightAnkle
				{
					OFFSET -2.54783 -7.00010 0.00000
					CHANNELS 3 Zrotation Yrotation Xrotation
					JOINT RightToe
					{
						OFFSET -0.18513 -0.50864 1.69288
						CHANNELS 3 Zrotation Yrotation Xrotation
						End Site
						{
							OFFSET -0.00000 -0.00000 0.89242
						}
					}
				}
			}
		}
	}
	JOINT lowerback
	{
		OFFSET 0 0 0
		CHANNELS 3 Zrotation Yrotation Xrotation
		JOINT Chest
		{
			OFFSET 0.02173 2.16290 -0.15998
			CHANNELS 3 Zrotation Yrotation Xrotation
			JOINT Chest2
			{
				OFFSET 0.00940 2.17323 -0.00467
				CHANNELS 3 Zrotation Yrotation Xrotation
				JOINT lowerneck
				{
					OFFSET 0 0 0
					CHANNELS 3 Zrotation Yrotation Xrotation
					JOINT Neck
					{
						OFFSET 0.01475 1.85823 0.31113
						CHANNELS 3 Zrotation Yrotation Xrotation
						JOINT Head
						{
							OFFSET 0.01902 1.88783 -0.37187
							CHANNELS 3 Zrotation Yrotation Xrotation
							End Site
							{
								OFFSET 0.00489 1.93211 -0.16169
							}
						}
					}
				}
				JOINT LeftCollar
				{
					OFFSET 0 0 0
					CHANNELS 3 Zrotation Yrotation Xrotation
					JOINT LeftShoulder
					{
						OFFSET 3.34199 1.32384 -0.07862
CHANNELS 3 Zrotation Xrotation Yrotation
						JOINT LeftElbow
						{
OFFSET 0 -5.279500 0.000000
CHANNELS 3 Zrotation Xrotation Yrotation
							JOINT LeftWrist
							{
OFFSET 0 -3.535040 0.000000
CHANNELS 3 Zrotation Xrotation Yrotation
								JOINT lhand
								{
									OFFSET 0 0 0
CHANNELS 3 Zrotation Xrotation Yrotation
									JOINT LFingers
									{
OFFSET 0 -0.667950 0.000000
CHANNELS 3 Zrotation Xrotation Yrotation
										End Site
										{
OFFSET 0 -0.538520 0.000000
										}
									}
								}
								JOINT LThumb
								{
OFFSET 0 0.000000 0.000000
CHANNELS 3 Zrotation Xrotation Yrotation
									End Site
									{
OFFSET 0 -0.546740 0.546740
									}
								}
							}
						}
					}
				}
				JOINT RightCollar
				{
					OFFSET 0 0 0
					CHANNELS 3 Zrotation Yrotation Xrotation
					JOINT RightShoulder
					{
						OFFSET -3.16149 1.45719 -0.50507
CHANNELS 3 Zrotation Xrotation Yrotation
						JOINT RightElbow
						{
OFFSET 0 -5.250350 0.000000
CHANNELS 3 Zrotation Xrotation Yrotation
							JOINT RightWrist
							{
OFFSET 0 -3.588840 0.000000
CHANNELS 3 Zrotation Xrotation Yrotation
								JOINT rhand
								{
									OFFSET 0 0 0
CHANNELS 3 Zrotation Xrotation Yrotation
									JOINT RFingers
									{
OFFSET 0 -0.779240 0.000000
CHANNELS 3 Zrotation Xrotation Yrotation
										End Site
										{
OFFSET 0 -0.628240 0.000000
										}
									}
								}
								JOINT RThumb
								{
OFFSET 0 0.000000 0.000000
CHANNELS 3 Zrotation Xrotation Yrotation
									End Site
									{
OFFSET 0 -0.637830 0.637830
									}
								}
							}
						}
					}
				}
			}
		}
	}
}
MOTION
Frames: 9
Frame Time: 0.008333333333333333
-9.061881 17.761402 -9.017502 237.218546 75.932887 -104.514038 0.000000 0.000000 0.000000 -9.148137 -10.347641 -35.001851 3.299372 11.164596 32.837067 0.687682 -1.137946 -15.320315 0.543470 -4.722923 -13.119940 0.000000 0.000000 0.000000 23.716436 -5.045385 -5.735102 0.000000 0.000000 0.000000 0.018768 2.713766 2.215090 -1.219302 7.003955 -19.727077 -2.766885 3.615910 10.936784 -1.840672 4.657110 4.557441 -0.915506 2.386371 -1.420941 1.016978 -0.114537 -21.265542 6.764125 -1.876776 35.388483 2.524954 0.735382 16.374245 0.000000 0.000000 0.000000 15.210807 -26.489471 -49.294497 53.330134 -54.218781 28.864520 36.421002 25.034727 -64.710371 0.000000 0.000000 0.000000 -7.125000 0.000000 0.000000 -135.508605 -78.444616 -144.249274 0.000000 0.000000 0.000000 -0.691051 -22.992496 46.647985 -28.020147 -39.134128 -10.136657 -27.700281 -47.063596 -5.513155 0.000000 0.000000 0.000000 7.125000 0.000000 0.000000 -0.745060 23.760758 -0.376134
-9.194428 17.749643 -8.982345 235.648501 75.295522 -105.303436 0.000000 0.000000 0.000000 -8.578798 -10.083114 -36.899985 3.350248 11.241521 33.098757 0.635283 -2.146621 -14.477703 0.504042 -4.551187 -12.632731 0.000000 0.000000 0.000000 24.942680 -6.354938 -7.314785 0.000000 0.000000 0.000000 0.036826 3.553956 0.336080 -0.994891 6.342141 -17.782401 -2.720070 3.509444 11.582291 -1.353069 4.521460 4.783624 -0.456641 2.318894 -1.571286 0.100320 -0.920042 -21.445039 7.710595 -3.123484 34.864659 2.833603 0.214412 16.259913 0.000000 0.000000 0.000000 13.215070 -31.609252 -53.433157 44.535149 -50.507567 21.888282 37.580386 27.896056 -62.347521 0.000000 0.000000 0.000000 -7.125000 0.000000 0.000000 -134.279431 -80.323590 -141.635978 0.000000 0.000000 0.000000 1.095576 -25.857017 46.618183 -27.116393 -38.289342 -9.571355 -28.992447 -45.805472 -4.775910 0.000000 0.000000 0.000000 7.125000 0.000000 0.000000 -1.739110 24.523490 -0.860971
-9.331185 17.732369 -8.967008 235.224603 75.012333 -104.774137 0.000000 0.000000 0.000000 -8.163422 -10.091637 -38.911385 3.420618 11.346642 33.457920 0.605964 -2.390384 -14.081724 0.609125 -4.994668 -13.893530 0.000000 0.000000 0.000000 26.091439 -7.222892 -8.872518 0.000000 0.000000 0.000000 -0.000416 3.058218 -2.152469 -0.733075 5.465452 -15.242152 -2.538626 3.384340 11.990617 -1.069804 4.364764 4.778138 -0.271317 2.240856 -1.805907 -1.356066 -2.053992 -21.575028 9.000502 -4.752872 34.626578 3.333253 -0.476604 16.374231 0.000000 0.000000 0.000000 11.458613 -36.119538 -56.973109 37.950513 -46.795440 16.933409 37.930997 28.397435 -63.924399 0.000000 0.000000 0.000000 -7.125000 0.000000 0.000000 -137.210703 -79.019453 -145.218116 0.000000 0.000000 0.000000 2.294026 -28.295929 49.022343 -26.277869 -37.481179 -9.056472 -28.426860 -44.537033 -5.106008 0.000000 0.000000 0.000000 7.125000 0.000000 0.000000 -1.301510 24.178328 -0.654432
-9.470879 17.722257 -8.975384 236.535210 75.346912 -102.500735 0.000000 0.000000 0.000000 -8.128912 -10.125103 -40.623929 3.453994 11.396065 33.627575 0.582278 -2.250158 -13.819669 0.568025 -4.826896 -13.415480 0.000000 0.000000 0.000000 26.864728 -7.544260 -10.090748 0.000000 0.000000 0.000000 -0.065734 0.943930 -4.613207 -0.322925 3.644253 -10.078935 -2.654215 3.148230 12.106821 -0.899772 4.033396 4.732188 0.005300 2.072530 -1.931545 -3.336300 -3.367518 -21.912378 10.429639 -6.519217 34.453505 3.968620 -1.277386 16.684976 0.000000 0.000000 0.000000 11.164401 -39.249499 -59.168334 33.488032 -43.698294 13.759349 43.104395 29.461263 -60.282169 0.000000 0.000000 0.000000 -7.125000 0.000000 0.000000 -146.794736 -81.534528 -151.708638 0.000000 0.000000 0.000000 3.279703 -30.690869 53.300707 -25.238411 -36.446332 -8.431292 -39.503803 -46.303451 -5.852194 0.000000 0.000000 0.000000 7.125000 0.000000 0.000000 -9.338375 22.434074 -5.146105
-9.594330 17.714342 -8.973388 241.891311 76.069987 -96.702368 0.000000 0.000000 0.000000 -8.304670 -9.158965 -41.718212 3.460735 11.405951 33.661575 0.559312 -1.908872 -13.600429 0.618299 -5.032274 -14.000665 0.000000 0.000000 0.000000 27.510625 -7.216020 -10.141972 0.000000 0.000000 0.000000 -0.070430 -2.085002 -6.236976 -0.240110 3.153364 -8.705882 -3.065456 3.161735 12.212174 -0.853620 3.996798 4.726442 0.280363 2.049478 -2.023119 -4.791602 -4.615066 -22.136185 11.199613 -8.155286 33.896020 4.199402 -2.069913 16.768942 0.000000 0.000000 0.000000 11.985584 -40.562392 -57.319455 33.173915 -43.463171 13.541545 46.707274 31.108241 -63.398673 0.000000 0.000000 0.000000 -7.125000 0.000000 0.000000 -154.067706 -78.168012 -159.713469 0.000000 0.000000 0.000000 4.119081 -32.500329 54.640258 -24.912029 -36.113944 -8.237970 -44.379908 -52.291678 -7.729342 0.000000 0.000000 0.000000 7.125000 0.000000 0.000000 -12.435705 19.353600 -7.796530
-9.695828 17.708636 -8.977752 251.078285 77.086818 -87.274493 0.000000 0.000000 0.000000 -8.957089 -7.694696 -42.290589 3.386762 11.296248 33.285667 0.544903 -0.907145 -13.662118 0.899907 -6.042861 -16.909810 0.000000 0.000000 0.000000 27.748460 -6.429344 -9.344059 0.000000 0.000000 0.000000 0.044922 -6.023714 -7.248878 -0.175124 2.694020 -7.428135 -3.737279 3.439056 12.260861 -1.063055 4.263922 4.614843 0.390865 2.177046 -2.202635 -6.355997 -5.902222 -21.961498 12.453681 -9.940607 32.801376 4.593272 -2.897017 16.613144 0.000000 0.000000 0.000000 13.347622 -39.451318 -53.346861 35.916250 -45.448618 15.464909 46.550705 28.822303 -62.798676 0.000000 0.000000 0.000000 -7.125000 0.000000 0.000000 -154.140539 -78.700315 -159.494751 0.000000 0.000000 0.000000 4.043444 -31.649498 53.411629 -27.899946 -39.014947 -10.063955 -43.887340 -56.100029 -10.934737 0.000000 0.000000 0.000000 7.125000 0.000000 0.000000 -11.475670 15.174124 -8.240872
-9.785513 17.712714 -8.992017 262.975439 77.869270 -75.052081 0.000000 0.000000 0.000000 -9.738518 -6.291367 -42.856647 3.289675 11.149817 32.786779 0.512829 0.422497 -13.688982 1.085340 -6.616863 -18.586723 0.000000 0.000000 0.000000 27.898615 -5.264872 -8.686404 -0.011396 -0.312141 0.858577 0.314644 -10.610766 -8.038852 -0.084042 1.817986 -5.004206 -4.264971 4.011122 11.914218 -1.519798 4.942682 4.423247 0.126648 2.509175 -2.239781 -7.484569 -7.255064 -20.931557 13.946012 -11.996931 30.956395 4.901808 -3.808275 15.999237 0.000000 0.000000 0.000000 14.633043 -37.224387 -50.689619 41.975605 -49.174915 19.928892 52.352283 31.854635 -61.595223 0.000000 0.000000 0.000000 -7.125000 0.000000 0.000000 -165.164966 -78.031101 -168.508761 0.000000 0.000000 0.000000 2.595733 -29.227641 54.716783 -33.688191 -43.831561 -13.903663 -46.124637 -54.317368 -13.157789 0.000000 0.000000 0.000000 7.125000 0.000000 0.000000 -12.454893 11.666657 -9.924707
-9.864111 17.734374 -9.015484 274.756589 78.004851 -63.223550 0.000000 0.000000 0.000000 -10.067917 -5.424614 -42.889708 3.240813 11.075069 32.533543 0.496798 1.356115 -13.877989 0.805313 -5.726783 -15.993838 0.000000 0.000000 0.000000 28.312369 -3.392433 -10.142185 -0.139792 -2.393204 6.594489 0.631021 -14.872330 -11.304464 -0.000220 -0.051594 0.141871 -4.410213 4.478286 11.619285 -1.855914 5.525714 4.175752 -0.214216 2.796215 -2.338616 -8.354567 -8.343353 -19.444393 15.310426 -13.690735 29.440478 5.213930 -4.577372 15.436966 0.000000 0.000000 0.000000 15.763301 -34.361763 -48.770736 50.925557 -53.320248 26.925912 53.040193 31.299206 -61.627378 0.000000 0.000000 0.000000 -7.125000 0.000000 0.000000 -166.149698 -77.775486 -169.356228 0.000000 0.000000 0.000000 0.965655 -26.343488 55.919156 -41.184349 -48.718771 -19.336396 -48.725259 -52.012629 -13.421652 0.000000 0.000000 0.000000 7.125000 0.000000 0.000000 -14.017482 10.541301 -11.579524
-9.946935 17.751608 -9.043290 284.274868 77.451155 -53.779848 0.000000 0.000000 0.000000 -9.905027 -4.970151 -42.750057 3.194320 11.003147 32.290456 0.453131 2.782863 -14.044583 0.717438 -5.412095 -15.087874 0.000000 0.000000 0.000000 28.805797 -2.287554 -10.534117 -0.313844 -3.592097 9.932828 1.210851 -19.565433 -12.488859 -0.000084 0.031800 -0.087360 -4.055842 4.625608 11.395547 -1.947688 5.736422 3.821801 -0.533329 2.899318 -2.552169 -8.834922 -9.128883 -18.313691 16.039570 -14.937364 28.931983 5.337734 -5.147843 15.294448 0.000000 0.000000 0.000000 17.064183 -31.206870 -47.738201 61.818512 -56.737959 35.866134 50.677238 27.922328 -61.884772 0.000000 0.000000 0.000000 -7.125000 0.000000 0.000000 -162.187114 -78.348885 -166.077363 0.000000 0.000000 0.000000 -0.522127 -23.213841 57.057160 -49.634931 -52.818112 -25.890677 -50.939990 -52.098606 -13.800163 0.000000 0.000000 0.000000 7.125000 0.000000 0.000000 -15.274789 9.265788 -13.105109
